<svg xmlns="http://www.w3.org/2000/svg" viewBox="0 0 512 512"><defs><linearGradient id="a" x1="18.75" y1="493.25" x2="493.25" y2="18.75" gradientUnits="userSpaceOnUse"><stop offset="0" stop-color="#001325"/><stop offset="1" stop-color="#162e72"/></linearGradient></defs><rect width="512" height="512" rx="64" fill="url(#a)"/><path d="M176.47,419.31q-11.62,0-18.54-5.36T151,401V111.46a15.28,15.28,0,0,1,8-14.08,34.06,34.06,0,0,1,17.43-4.69h86.68a143.65,143.65,0,0,1,43.34,6.48A66.2,66.2,0,0,1,340,122.63q13,17,13,48.7,0,27.25-10.28,45.35T315,242.37A76.6,76.6,0,0,1,339.11,256a58.53,58.53,0,0,1,16.08,22.79Q361,292.86,361,315.2v9.39q0,34.85-11.84,55.62T317,410.15q-20.34,9.17-45.35,9.16Zm32.61-199.73h50q18.31,0,27-10.72t8.71-27.7q0-12.06-4.47-20.33a31.18,31.18,0,0,0-12.51-12.73q-8-4.47-19.21-4.47h-49.6Zm0,148.79h50q20.55,0,32.17-11.61t11.61-37.09v-7.15q0-26.36-11.61-36.86t-32.17-10.5h-50Z" fill="#29abe2"/></svg>